HIERARCHY
ROOT ROOT
{
	OFFSET 0.000000 56.020000 -5.659234
	CHANNELS 6 Xposition Yposition Zposition Xrotation Yrotation Zrotation 
	JOINT C_spine0001_bind_JNT
	{
		OFFSET 0.000000 1.618999 0.000000
		CHANNELS 3 Xrotation Yrotation Zrotation
		JOINT C_spine0002_bind_JNT
		{
			OFFSET 0.000000 4.942001 0.000001
			CHANNELS 3 Xrotation Yrotation Zrotation
			JOINT C_spine0003_bind_JNT
			{
				OFFSET 0.000000 4.942001 -0.000000
				CHANNELS 3 Xrotation Yrotation Zrotation
				JOINT C_neck0001_bind_JNT
				{
					OFFSET 0.000000 17.026009 -0.000000
					CHANNELS 3 Xrotation Yrotation Zrotation
					JOINT C_neck0002_bind_JNT
					{
						OFFSET 0.000000 3.249985 0.000000
						CHANNELS 3 Xrotation Yrotation Zrotation
						JOINT C_head_bind_JNT
						{
							OFFSET 0.000000 5.278008 0.000000
							CHANNELS 3 Xrotation Yrotation Zrotation
							End Site
							{
								OFFSET 0.000000 0.000000 0.000000
							}
						}
					}
				}
				JOINT L_clavicle_bind_JNT
				{
					OFFSET 4.590000 12.067001 0.834000
					CHANNELS 3 Xrotation Yrotation Zrotation
					JOINT L_armUpper0001_bind_JNT
					{
						OFFSET 7.812635 0.512001 -3.452945
						CHANNELS 3 Xrotation Yrotation Zrotation
						JOINT L_armLower0001_bind_JNT
						{
							OFFSET 15.265892 -6.552116 -0.058157
							CHANNELS 3 Xrotation Yrotation Zrotation
							JOINT L_hand0001_bind_JNT
							{
								OFFSET 14.747667 -6.369995 5.049225
								CHANNELS 3 Xrotation Yrotation Zrotation
								End Site
								{
									OFFSET 0.000000 0.000000 0.000000
								}
							}
						}
					}
				}
				JOINT R_clavicle_bind_JNT
				{
					OFFSET -4.590000 12.067001 0.834000
					CHANNELS 3 Xrotation Yrotation Zrotation
					JOINT R_armUpper0001_bind_JNT
					{
						OFFSET -7.812635 0.512001 -3.452945
						CHANNELS 3 Xrotation Yrotation Zrotation
						JOINT R_armLower0001_bind_JNT
						{
							OFFSET -15.265890 -6.552124 -0.058160
							CHANNELS 3 Xrotation Yrotation Zrotation
							JOINT R_hand0001_bind_JNT
							{
								OFFSET -14.746784 -6.369629 5.048937
								CHANNELS 3 Xrotation Yrotation Zrotation
								End Site
								{
									OFFSET 0.000000 0.000000 0.000000
								}
							}
						}
					}
				}
			}
		}
	}
	JOINT C_pelvis0001_bind_JNT
	{
		OFFSET -0.000000 0.000000 0.000000
		CHANNELS 3 Xrotation Yrotation Zrotation
		JOINT L_legUpper0001_bind_JNT
		{
			OFFSET 6.599999 -6.027000 0.539000
			CHANNELS 3 Xrotation Yrotation Zrotation
			JOINT L_legLower0001_bind_JNT
			{
				OFFSET -0.140713 -19.187443 0.040261
				CHANNELS 3 Xrotation Yrotation Zrotation
				JOINT L_foot0001_bind_JNT
				{
					OFFSET -0.132215 -18.028637 -1.138370
					CHANNELS 3 Xrotation Yrotation Zrotation
					JOINT L_foot0002_bind_JNT
					{
						OFFSET 0.007014 -4.693133 9.886524
						CHANNELS 3 Xrotation Yrotation Zrotation
						End Site
						{
							OFFSET 0.000000 0.000000 0.000000
						}
					}
				}
			}
		}
		JOINT R_legUpper0001_bind_JNT
		{
			OFFSET -6.599999 -6.027000 0.539000
			CHANNELS 3 Xrotation Yrotation Zrotation
			JOINT R_legLower0001_bind_JNT
			{
				OFFSET 0.140710 -19.187164 0.040550
				CHANNELS 3 Xrotation Yrotation Zrotation
				JOINT R_foot0001_bind_JNT
				{
					OFFSET 0.132215 -18.028633 -1.138362
					CHANNELS 3 Xrotation Yrotation Zrotation
					JOINT R_foot0002_bind_JNT
					{
						OFFSET -0.007014 -4.693128 9.886505
						CHANNELS 3 Xrotation Yrotation Zrotation
						End Site
						{
							OFFSET 0.000000 0.000000 0.000000
						}
					}
				}
			}
		}
	}
}
MOTION
Frames: 9
Frame Time: 0.033333
-9.098515 47.246006 7.254932 0.014869 -11.875460 -0.033928 7.479749 21.643879 -3.015975 19.976683 -2.506624 13.649926 8.503566 -2.332806 5.023173 3.565790 0.917695 -1.881365 1.537997 -12.377445 1.240263 36.246349 10.207831 6.790236 -7.411416 1.498178 2.076407 -5.801167 6.225829 -44.536377 -7.569496 -38.159489 -9.390461 1.683644 -32.500916 -22.322388 -0.651101 -11.293357 -0.515625 3.708068 -13.064192 55.853512 7.882096 13.994020 -8.263641 -5.318496 28.268906 30.790564 11.846004 21.016256 -2.621803 -30.107203 -0.487696 3.096985 60.708378 -1.898874 4.478933 -4.531630 3.306105 -5.784515 -20.453911 -0.349628 1.022608 -39.071827 0.798263 -10.920288 29.906897 -12.058075 4.752706 0.314448 1.536674 3.841744 -0.437298 0.884643 0.226858 
-9.244977 47.690693 8.134787 0.018316 -12.643090 -0.040287 7.860270 22.114742 -1.700725 20.089800 -1.541009 12.886654 8.420362 -1.595813 4.959677 3.055881 0.832584 -1.710525 1.534920 -12.976756 1.692747 35.927601 8.965208 6.216956 -7.103167 2.334667 1.838500 -3.532649 6.620742 -46.167976 -3.649535 -35.821156 -7.699124 1.339867 -32.980839 -24.297846 -1.370821 -11.442765 -0.987248 2.050579 -12.182506 54.914360 5.251166 16.813681 -6.233103 -6.219802 28.189312 28.477217 11.908254 21.953072 -1.830810 -31.446035 -0.347195 2.737937 60.389736 -0.911898 2.831275 -3.639823 2.439556 -5.974992 -17.174587 0.115185 0.908008 -37.998512 1.017742 -11.639967 30.166639 -12.056859 4.921566 -0.661806 1.663759 4.041678 -0.558931 0.783880 0.120660 
-9.175043 48.125229 8.885554 0.015246 -12.612371 -0.022220 7.790315 21.922567 -0.198274 20.051737 -1.006867 11.699975 8.393868 -0.969258 4.828281 2.677115 0.881742 -1.641140 1.744402 -13.959787 1.682342 35.408001 8.245124 6.182441 -6.406774 3.289241 1.658633 -0.884721 7.824085 -48.390751 1.160614 -34.121807 -5.427023 1.603559 -32.510422 -25.098263 -1.463167 -11.579762 -1.108950 0.299875 -10.704370 54.581257 2.674620 19.480272 -5.291835 -6.679704 28.287994 26.311079 12.224401 22.019707 -0.765664 -32.380352 0.107875 1.536634 57.877518 0.327999 1.121223 -4.220859 2.720822 -5.610785 -14.964706 -0.020625 0.588854 -36.964775 0.819172 -12.985658 29.154535 -11.234302 4.638756 -0.506292 1.237381 4.379017 -0.710155 0.894398 0.391640 
-8.948718 48.642277 9.528975 0.026969 -12.929852 -0.037773 7.641495 21.856297 1.075446 20.059807 0.033709 10.956818 8.306448 -0.412071 4.689744 1.912394 0.892093 -1.593554 1.941053 -14.654047 1.339333 35.108265 7.191084 5.664356 -6.113445 4.117859 1.566688 1.868196 9.165813 -50.352501 6.978983 -31.728338 -2.333911 1.361041 -32.529705 -26.156090 -2.208734 -11.146627 -1.749658 -0.705557 -10.064204 53.992931 0.340203 23.007870 -3.691251 -6.935662 28.529253 23.654543 12.143340 22.481827 0.175450 -31.834551 0.165613 0.802469 52.875706 2.076431 -0.868281 -4.014904 1.942815 -5.876576 -13.795661 0.355429 0.487003 -35.692333 0.659867 -14.220956 28.353874 -10.765067 4.038872 -0.752644 0.751639 5.503586 -0.785537 0.700355 0.112818 
-8.735518 49.135303 10.100320 0.014670 -12.949839 -0.032928 7.928609 21.711763 2.292256 19.969612 0.722788 9.849493 8.094940 0.290713 4.502898 1.720063 0.967830 -1.394804 2.015699 -15.614423 1.145190 34.774044 6.260664 5.339251 -5.442915 5.101031 1.699995 3.977765 10.729452 -51.898209 11.538514 -29.524246 -0.066526 1.438188 -32.043167 -27.065332 -2.559751 -11.318159 -2.253164 -1.547252 -9.009467 53.148777 -1.570264 26.638323 -2.909690 -7.061451 28.957603 22.384470 12.361820 22.544346 1.117825 -31.544165 0.388165 0.008299 46.881165 4.423350 -2.430533 -3.936757 1.263911 -6.206293 -11.270306 0.062563 0.628212 -34.809334 0.597007 -15.156649 27.333158 -9.940935 3.371068 -0.648849 -0.124119 5.938380 -0.838686 0.783662 0.306626 
-8.377086 49.627193 10.851148 0.026833 -13.175542 -0.045268 8.049664 21.591452 3.149152 20.044489 1.719637 9.233099 7.987134 0.866426 4.333801 1.326883 0.687287 -1.259932 2.076099 -15.696771 0.621245 34.360874 5.288077 4.780033 -5.192585 5.869722 1.755856 6.149717 12.607583 -53.063320 15.133808 -27.851936 1.994121 2.004353 -31.801315 -27.963095 -3.246545 -11.082477 -2.984422 -2.439770 -8.623950 52.326214 -3.279088 29.629946 -2.317760 -7.538892 29.428644 21.569937 12.631232 22.666645 1.669243 -29.669353 0.730706 -0.500256 39.387779 6.465823 -3.231518 -4.263492 0.482294 -7.262547 -7.521647 0.021699 0.765800 -33.936687 0.262129 -16.056852 26.967825 -8.895677 2.696253 -1.223947 -1.235896 6.731135 -1.005737 0.757184 0.295046 
-8.006251 49.924129 11.308189 0.028108 -12.980747 -0.034242 8.172447 21.478718 3.633172 19.637140 2.120775 8.691275 7.881401 1.342878 4.209745 1.442251 0.756288 -1.124207 1.990174 -16.224220 0.441363 34.370304 4.989491 5.046927 -4.556314 6.793177 1.752959 7.751889 14.271247 -53.417210 16.768326 -26.943405 2.163087 3.087511 -31.480282 -27.993670 -3.471200 -11.083332 -3.335888 -2.824496 -7.908724 51.257793 -4.582895 31.516977 -1.538728 -6.924955 30.196636 20.169357 12.718965 22.343092 1.964343 -28.005556 0.797412 -1.085287 32.569981 8.593020 -3.548823 -3.315521 0.422825 -8.119688 -5.665956 -0.468132 0.763547 -33.457684 0.358531 -16.390652 26.469177 -8.279808 1.870168 -1.074214 -1.841403 7.576570 -0.830580 0.896890 0.421700 
-7.561974 50.223785 11.800486 0.028969 -12.740241 -0.039211 8.465443 21.468353 3.642168 19.173899 2.616796 8.507047 7.688766 1.573874 4.200900 1.457355 0.549527 -1.136713 1.886105 -16.325869 0.455509 34.528084 4.776174 4.793587 -4.250231 7.444004 1.757089 9.561203 15.751371 -54.126629 17.066765 -25.829659 2.253679 3.772410 -31.376213 -28.122023 -3.728118 -10.712771 -4.128709 -3.468874 -7.847680 51.226730 -4.676892 32.556229 -1.719377 -6.753527 30.783052 19.485748 12.701888 22.395630 2.142780 -26.069590 1.297506 -1.887728 25.546921 10.465322 -3.289825 -1.394519 -0.627198 -8.177663 -4.170706 -0.467445 0.866137 -32.397530 -0.059016 -17.065159 26.169746 -7.765505 1.246107 -1.316241 -2.336049 8.445609 -1.354440 0.836868 0.509210 
-7.191260 50.311054 12.191462 0.028431 -12.378225 -0.029296 8.503503 21.431803 3.415707 18.768257 2.931078 8.331342 7.597854 1.541079 3.972351 1.599630 0.497994 -0.972779 1.704104 -16.199215 0.478820 35.127533 4.926582 5.071077 -3.688867 8.175491 1.877084 10.531962 16.628374 -54.545227 16.661812 -24.866039 1.181837 4.510496 -31.400778 -27.615969 -3.541977 -10.553216 -4.128028 -3.784998 -7.394690 51.264812 -4.262104 32.707336 -2.244462 -6.718610 31.576509 19.392504 12.810736 22.127918 1.959970 -25.081871 1.607511 -2.472167 21.761372 11.437717 -2.748714 0.244615 -1.253681 -7.681539 -4.005190 -0.339068 0.911491 -32.522633 -0.166175 -17.272524 26.655046 -7.721891 1.017176 -1.124834 -2.431723 9.106109 -1.506054 0.851204 0.399453 
